<svg width="74" height="19" viewBox="0 0 74 19" fill="none" xmlns="http://www.w3.org/2000/svg">
<path d="M0.517045 18V0.545454H4.20739V14.9574H11.6903V18H0.517045ZM31.8943 9.27273C31.8943 11.1761 31.5335 12.7955 30.8119 14.1307C30.096 15.4659 29.1188 16.4858 27.8801 17.1903C26.6472 17.8892 25.2608 18.2386 23.721 18.2386C22.1699 18.2386 20.7778 17.8864 19.5449 17.1818C18.3119 16.4773 17.3375 15.4574 16.6216 14.1222C15.9057 12.7869 15.5477 11.1705 15.5477 9.27273C15.5477 7.36932 15.9057 5.75 16.6216 4.41477C17.3375 3.07955 18.3119 2.0625 19.5449 1.36364C20.7778 0.659091 22.1699 0.306818 23.721 0.306818C25.2608 0.306818 26.6472 0.659091 27.8801 1.36364C29.1188 2.0625 30.096 3.07955 30.8119 4.41477C31.5335 5.75 31.8943 7.36932 31.8943 9.27273ZM28.1528 9.27273C28.1528 8.03977 27.9682 7 27.5989 6.15341C27.2352 5.30682 26.721 4.66477 26.0562 4.22727C25.3915 3.78977 24.6131 3.57102 23.721 3.57102C22.829 3.57102 22.0506 3.78977 21.3858 4.22727C20.721 4.66477 20.204 5.30682 19.8347 6.15341C19.471 7 19.2892 8.03977 19.2892 9.27273C19.2892 10.5057 19.471 11.5455 19.8347 12.392C20.204 13.2386 20.721 13.8807 21.3858 14.3182C22.0506 14.7557 22.829 14.9744 23.721 14.9744C24.6131 14.9744 25.3915 14.7557 26.0562 14.3182C26.721 13.8807 27.2352 13.2386 27.5989 12.392C27.9682 11.5455 28.1528 10.5057 28.1528 9.27273ZM48.6018 6.1875C48.4825 5.77273 48.3149 5.40625 48.099 5.08807C47.8831 4.7642 47.6189 4.49148 47.3064 4.26989C46.9996 4.04261 46.6473 3.86932 46.2496 3.75C45.8575 3.63068 45.4229 3.57102 44.9456 3.57102C44.0536 3.57102 43.2695 3.79261 42.5933 4.23579C41.9229 4.67898 41.4001 5.32386 41.0251 6.17045C40.6501 7.01136 40.4626 8.03977 40.4626 9.25568C40.4626 10.4716 40.6473 11.5057 41.0166 12.358C41.3859 13.2102 41.9087 13.8608 42.5848 14.3097C43.2609 14.7528 44.0592 14.9744 44.9797 14.9744C45.8149 14.9744 46.528 14.8267 47.1189 14.5312C47.7155 14.2301 48.17 13.8068 48.4825 13.2614C48.8007 12.7159 48.9598 12.071 48.9598 11.3267L49.7098 11.4375H45.2098V8.65909H52.5138V10.858C52.5138 12.392 52.1899 13.7102 51.5422 14.8125C50.8945 15.9091 50.0024 16.7557 48.8661 17.3523C47.7297 17.9432 46.4286 18.2386 44.9626 18.2386C43.3263 18.2386 41.8888 17.8778 40.6501 17.1562C39.4115 16.429 38.4456 15.3977 37.7524 14.0625C37.0649 12.7216 36.7212 11.1307 36.7212 9.28977C36.7212 7.875 36.9257 6.61364 37.3348 5.50568C37.7496 4.39205 38.3291 3.44886 39.0734 2.67614C39.8178 1.90341 40.6842 1.31534 41.6729 0.911931C42.6615 0.508522 43.7325 0.306818 44.8859 0.306818C45.8746 0.306818 46.795 0.451704 47.6473 0.741477C48.4996 1.02557 49.2553 1.42898 49.9143 1.9517C50.5791 2.47443 51.1217 3.09659 51.5422 3.81818C51.9626 4.53409 52.2325 5.32386 52.3518 6.1875H48.6018ZM73.7256 9.27273C73.7256 11.1761 73.3648 12.7955 72.6432 14.1307C71.9273 15.4659 70.95 16.4858 69.7114 17.1903C68.4784 17.8892 67.092 18.2386 65.5523 18.2386C64.0011 18.2386 62.6091 17.8864 61.3761 17.1818C60.1432 16.4773 59.1688 15.4574 58.4528 14.1222C57.7369 12.7869 57.379 11.1705 57.379 9.27273C57.379 7.36932 57.7369 5.75 58.4528 4.41477C59.1688 3.07955 60.1432 2.0625 61.3761 1.36364C62.6091 0.659091 64.0011 0.306818 65.5523 0.306818C67.092 0.306818 68.4784 0.659091 69.7114 1.36364C70.95 2.0625 71.9273 3.07955 72.6432 4.41477C73.3648 5.75 73.7256 7.36932 73.7256 9.27273ZM69.9841 9.27273C69.9841 8.03977 69.7994 7 69.4301 6.15341C69.0665 5.30682 68.5523 4.66477 67.8875 4.22727C67.2227 3.78977 66.4443 3.57102 65.5523 3.57102C64.6602 3.57102 63.8818 3.78977 63.217 4.22727C62.5523 4.66477 62.0352 5.30682 61.6659 6.15341C61.3023 7 61.1205 8.03977 61.1205 9.27273C61.1205 10.5057 61.3023 11.5455 61.6659 12.392C62.0352 13.2386 62.5523 13.8807 63.217 14.3182C63.8818 14.7557 64.6602 14.9744 65.5523 14.9744C66.4443 14.9744 67.2227 14.7557 67.8875 14.3182C68.5523 13.8807 69.0665 13.2386 69.4301 12.392C69.7994 11.5455 69.9841 10.5057 69.9841 9.27273Z" fill="#DCF10D"/>
</svg>
