<svg width="300" height="30" viewBox="0 0 300 30" fill="none" xmlns="http://www.w3.org/2000/svg">
<circle cx="15" cy="15" r="15" fill="white"/>
<path d="M15 0.00012207C6.71566 0.00012207 0 6.71578 0 15.0001C0 23.2844 6.71566 30 15 30C23.2843 30 30 23.2844 30 15.0001C29.9999 6.71578 23.2842 0.00012207 15 0.00012207ZM10.9979 22.2519H7.70455V11.6119H10.9979V22.2519ZM9.33556 10.2185C8.25997 10.2185 7.38802 9.33941 7.38802 8.25521C7.38802 7.17089 8.26009 6.29188 9.33556 6.29188C10.411 6.29188 11.283 7.17089 11.283 8.25521C11.283 9.33947 10.4111 10.2185 9.33556 10.2185ZM23.3399 22.2519H20.0625V16.6668C20.0625 15.1349 19.4807 14.2798 18.2694 14.2798C16.9511 14.2798 16.2624 15.1704 16.2624 16.6668V22.2519H13.1037V11.6119H16.2624V13.0449C16.2624 13.0449 17.2126 11.2873 19.4687 11.2873C21.7249 11.2873 23.34 12.6649 23.34 15.5148L23.3399 22.2519Z" fill="#192140"/>
<rect x="45" width="30" height="30" rx="15" fill="#192140"/>
<path d="M57.0007 15C57.0007 13.3432 58.3435 11.9998 60.0004 11.9998C61.6572 11.9998 63.0007 13.3432 63.0007 15C63.0007 16.6568 61.6572 18.0002 60.0004 18.0002C58.3435 18.0002 57.0007 16.6568 57.0007 15ZM55.3788 15C55.3788 17.5524 57.4479 19.6214 60.0004 19.6214C62.5529 19.6214 64.6219 17.5524 64.6219 15C64.6219 12.4476 62.5529 10.3786 60.0004 10.3786C57.4479 10.3786 55.3789 12.4475 55.3789 15H55.3788ZM63.7249 10.1954C63.7248 10.409 63.7881 10.6178 63.9067 10.7955C64.0253 10.9731 64.194 11.1116 64.3912 11.1934C64.5886 11.2752 64.8057 11.2967 65.0152 11.2551C65.2248 11.2136 65.4173 11.1108 65.5684 10.9598C65.7195 10.8088 65.8224 10.6164 65.8642 10.4069C65.906 10.1974 65.8847 9.98026 65.803 9.78288C65.7213 9.5855 65.5829 9.41678 65.4054 9.29806C65.2278 9.17929 65.019 9.11589 64.8054 9.11583H64.805C64.5186 9.11595 64.2441 9.22972 64.0416 9.4321C63.8391 9.63455 63.7252 9.90908 63.7249 10.1954ZM56.3642 22.3258C55.4867 22.2859 55.0098 22.1397 54.6928 22.0163C54.2726 21.8527 53.9728 21.6578 53.6576 21.3431C53.3423 21.0283 53.1472 20.7287 52.9843 20.3086C52.8608 19.9918 52.7146 19.5147 52.6747 18.6372C52.6311 17.6886 52.6224 17.4036 52.6224 15.0001C52.6224 12.5967 52.6318 12.3125 52.6747 11.363C52.7147 10.4856 52.8619 10.0095 52.9843 9.69173C53.1479 9.27152 53.3428 8.97171 53.6576 8.65651C53.9723 8.3413 54.2719 8.14618 54.6928 7.98332C55.0096 7.85976 55.4867 7.7136 56.3642 7.67371C57.3129 7.63008 57.5979 7.62137 60.0004 7.62137C62.4028 7.62137 62.6881 7.63066 63.6376 7.67386C64.5151 7.71382 64.9912 7.86106 65.309 7.98346C65.7292 8.14632 66.029 8.34187 66.3443 8.65666C66.6595 8.97147 66.8539 9.2717 67.0175 9.69185C67.1411 10.0087 67.2872 10.4858 67.3271 11.3632C67.3707 12.3127 67.3795 12.5968 67.3795 15.0003C67.3795 17.4037 67.3707 17.6879 67.3271 18.6374C67.2871 19.5148 67.1402 19.9918 67.0175 20.3087C66.8539 20.7289 66.6591 21.0287 66.3443 21.3432C66.0294 21.6577 65.7292 21.8528 65.309 22.0164C64.9922 22.1399 64.5151 22.2861 63.6376 22.326C62.6889 22.3696 62.4039 22.3783 60.0004 22.3783C57.5968 22.3783 57.3126 22.3696 56.3642 22.326V22.3258ZM56.2897 6.05451C55.3315 6.09814 54.6768 6.25006 54.105 6.47254C53.5133 6.70229 53.0116 7.01052 52.5107 7.51063C52.0098 8.01074 51.7023 8.51244 51.4726 9.10491C51.2501 9.67701 51.0981 10.3314 51.0545 11.2895C51.0102 12.2491 51 12.5559 51 15C51 17.4441 51.0102 17.7509 51.0545 18.7105C51.0981 19.6687 51.2501 20.3229 51.4726 20.8951C51.7023 21.4869 52.0098 21.9895 52.5107 22.4894C53.0115 22.9893 53.5125 23.2971 54.105 23.5275C54.6779 23.75 55.3315 23.9019 56.2897 23.9455C57.2498 23.9891 57.5562 24 60.0004 24C62.4446 24 62.7514 23.9899 63.7111 23.9455C64.6693 23.9019 65.3236 23.75 65.8957 23.5275C66.4875 23.2971 66.9891 22.9895 67.49 22.4894C67.991 21.9892 68.2977 21.4869 68.5282 20.8951C68.7507 20.3229 68.9033 19.6686 68.9463 18.7105C68.9899 17.7502 69 17.4441 69 15C69 12.5559 68.9899 12.2491 68.9463 11.2895C68.9026 10.3313 68.7507 9.67671 68.5282 9.10491C68.2977 8.51316 67.9901 8.01154 67.49 7.51063C66.9899 7.00973 66.4875 6.70229 65.8964 6.47254C65.3236 6.25006 64.6692 6.09742 63.7117 6.05451C62.7519 6.01066 62.4453 6 60.0015 6C57.5576 6 57.2502 6.01015 56.29 6.05451" fill="white"/>
<g clip-path="url(#clip0_1_198)">
<circle cx="105" cy="15" r="15" fill="#192140"/>
<path d="M110.406 18.7749L111.059 14.6936H107.141V11.8363C107.141 10.6933 107.549 9.79501 109.345 9.79501H111.222V6.04057C110.161 5.87714 109.019 5.71484 107.956 5.71484C104.609 5.71484 102.241 7.75611 102.241 11.4294V14.6947H98.5703V18.7761H102.241V29.1445C103.857 29.471 105.523 29.471 107.139 29.1445V18.7783L110.406 18.7749Z" fill="white"/>
</g>
<rect x="135" width="30" height="30" rx="15" fill="#192140"/>
<path d="M160 9.77927C159.338 10.0799 158.627 10.2831 157.879 10.3749C158.651 9.90181 159.228 9.15718 159.503 8.27997C158.778 8.72122 157.985 9.03181 157.158 9.19824C156.602 8.58947 155.865 8.18597 155.062 8.05038C154.259 7.91479 153.435 8.0547 152.718 8.44839C152.001 8.84208 151.43 9.46752 151.095 10.2276C150.76 10.9877 150.679 11.8399 150.865 12.6519C149.397 12.5764 147.96 12.1851 146.649 11.5036C145.338 10.8221 144.181 9.86554 143.253 8.69603C142.936 9.25675 142.754 9.90686 142.754 10.5992C142.754 11.2225 142.903 11.8362 143.19 12.386C143.476 12.9357 143.891 13.4045 144.396 13.7506C143.81 13.7315 143.237 13.5691 142.724 13.2768V13.3256C142.724 14.1998 143.019 15.0471 143.559 15.7237C144.099 16.4003 144.85 16.8646 145.686 17.0377C145.142 17.1886 144.572 17.2109 144.018 17.1027C144.254 17.8549 144.714 18.5127 145.332 18.9839C145.951 19.4551 146.698 19.7163 147.468 19.7308C146.16 20.7835 144.545 21.3545 142.882 21.352C142.587 21.3521 142.293 21.3344 142 21.2992C143.688 22.4118 145.653 23.0023 147.66 23C154.454 23 158.168 17.2319 158.168 12.2294C158.168 12.0668 158.164 11.9027 158.157 11.7402C158.879 11.2046 159.503 10.5414 159.998 9.78171L160 9.77927Z" fill="white"/>
<circle cx="195" cy="15" r="15" fill="#192140"/>
<path d="M201.844 10.6999C199.444 6.99988 194.544 5.89988 190.744 8.19988C187.044 10.4999 185.844 15.4999 188.244 19.1999L188.444 19.4999L187.644 22.4999L190.644 21.6999L190.944 21.8999C192.244 22.5999 193.644 22.9999 195.044 22.9999C196.544 22.9999 198.044 22.5999 199.344 21.7999C203.044 19.3999 204.144 14.4999 201.844 10.6999ZM199.744 18.3999C199.344 18.9999 198.844 19.3999 198.144 19.4999C197.744 19.4999 197.244 19.6999 195.244 18.8999C193.544 18.0999 192.144 16.7999 191.144 15.2999C190.544 14.5999 190.244 13.6999 190.144 12.7999C190.144 11.9999 190.444 11.2999 190.944 10.7999C191.144 10.5999 191.344 10.4999 191.544 10.4999H192.044C192.244 10.4999 192.444 10.4999 192.544 10.8999C192.744 11.3999 193.244 12.5999 193.244 12.6999C193.344 12.7999 193.344 12.9999 193.244 13.0999C193.344 13.2999 193.244 13.4999 193.144 13.5999C193.044 13.6999 192.944 13.8999 192.844 13.9999C192.644 14.0999 192.544 14.2999 192.644 14.4999C193.044 15.0999 193.544 15.6999 194.044 16.1999C194.644 16.6999 195.244 17.0999 195.944 17.3999C196.144 17.4999 196.344 17.4999 196.444 17.2999C196.544 17.0999 197.044 16.5999 197.244 16.3999C197.444 16.1999 197.544 16.1999 197.744 16.2999L199.344 17.0999C199.544 17.1999 199.744 17.2999 199.844 17.3999C199.944 17.6999 199.944 18.0999 199.744 18.3999Z" fill="white"/>
<rect x="225" width="30" height="30" rx="15" fill="#192140"/>
<path d="M248 12.7916C246.427 12.7955 244.893 12.2859 243.614 11.3347V17.9686C243.614 19.1972 243.252 20.3965 242.578 21.4059C241.904 22.4154 240.949 23.187 239.842 23.6175C238.734 24.048 237.527 24.1169 236.38 23.8151C235.234 23.5132 234.204 22.8549 233.427 21.9282C232.651 21.0015 232.165 19.8506 232.035 18.6294C231.905 17.4082 232.137 16.1749 232.7 15.0943C233.263 14.0138 234.13 13.1375 235.185 12.5828C236.24 12.028 237.433 11.8211 238.604 11.9898V15.3264C238.068 15.1513 237.493 15.1565 236.96 15.3415C236.427 15.5265 235.964 15.8817 235.637 16.3564C235.31 16.8312 235.136 17.4011 235.139 17.9849C235.142 18.5687 235.323 19.1365 235.655 19.6072C235.988 20.0779 236.455 20.4274 236.99 20.6059C237.525 20.7843 238.1 20.7825 238.634 20.6008C239.168 20.4191 239.633 20.0667 239.963 19.594C240.293 19.1213 240.47 18.5524 240.47 17.9686V5H243.614C243.612 5.27584 243.634 5.55131 243.681 5.82292C243.79 6.42925 244.017 7.00605 244.348 7.51804C244.679 8.03003 245.107 8.46644 245.606 8.80059C246.316 9.28837 247.149 9.54835 248 9.54816V12.7916Z" fill="white"/>
<circle cx="285" cy="15" r="15" fill="#192140"/>
<path d="M291 15L281 9V21L291 15Z" fill="white"/>
<defs>
<clipPath id="clip0_1_198">
<rect width="30" height="30" fill="white" transform="translate(90)"/>
</clipPath>
</defs>
</svg>
